<svg width="32" height="31" viewBox="0 0 32 31" fill="none" xmlns="http://www.w3.org/2000/svg">
<path fill-rule="evenodd" clip-rule="evenodd" d="M31.2 15.2C31.2 19.2313 29.5564 23.0975 26.6309 25.948C23.7053 28.7986 19.7374 30.4 15.6 30.4C11.4626 30.4 7.4947 28.7986 4.56913 25.948C1.64357 23.0975 0 19.2313 0 15.2C0 11.1687 1.64357 7.30253 4.56913 4.45198C7.4947 1.60142 11.4626 0 15.6 0C19.7374 0 23.7053 1.60142 26.6309 4.45198C29.5564 7.30253 31.2 11.1687 31.2 15.2ZM19.5 9.5C19.5 10.5078 19.0891 11.4744 18.3577 12.187C17.6263 12.8996 16.6343 13.3 15.6 13.3C14.5657 13.3 13.5737 12.8996 12.8423 12.187C12.1109 11.4744 11.7 10.5078 11.7 9.5C11.7 8.49218 12.1109 7.52563 12.8423 6.81299C13.5737 6.10036 14.5657 5.7 15.6 5.7C16.6343 5.7 17.6263 6.10036 18.3577 6.81299C19.0891 7.52563 19.5 8.49218 19.5 9.5ZM15.6 17.1C13.7331 17.0996 11.9053 17.6215 10.3339 18.6037C8.76243 19.5858 7.51343 20.9869 6.7353 22.6404C7.83252 23.8841 9.19283 24.882 10.7229 25.5654C12.2531 26.2489 13.9168 26.6018 15.6 26.6C17.2832 26.6018 18.9469 26.2489 20.4771 25.5654C22.0072 24.882 23.3675 23.8841 24.4647 22.6404C23.6866 20.9869 22.4376 19.5858 20.8661 18.6037C19.2947 17.6215 17.4669 17.0996 15.6 17.1Z" fill="#008DD5"/>
</svg>
